<?xml version="1.0" ?><svg enable-background="new 0 0 512 512" id="Layer_1" version="1.1" viewBox="0 0 512 512" xml:space="preserve" xmlns="http://www.w3.org/2000/svg" xmlns:xlink="http://www.w3.org/1999/xlink"><g><g><linearGradient gradientUnits="userSpaceOnUse" id="SVGID_1_" x1="-0.0000027" x2="512" y1="256" y2="256"><stop offset="0" style="stop-color:#00AEEE"/><stop offset="1" style="stop-color:#0095DA"/></linearGradient><circle cx="256" cy="256" fill="url(#SVGID_1_)" r="256"/><linearGradient gradientUnits="userSpaceOnUse" id="SVGID_2_" x1="42.6666641" x2="469.3333435" y1="256.0010681" y2="256.0010681"><stop offset="0" style="stop-color:#0095DA"/><stop offset="1" style="stop-color:#00AEEE"/></linearGradient><path d="M256,469.3344116c-117.6314697,0-213.3333435-95.7024231-213.3333435-213.3333435    c0-117.6314697,95.7018661-213.3333435,213.3333435-213.3333435c117.6357422,0,213.3333435,95.7018661,213.3333435,213.3333435    C469.3333435,373.6319885,373.6357422,469.3344116,256,469.3344116z" fill="url(#SVGID_2_)"/></g><g id="XMLID_35_"><g id="XMLID_41_"><rect height="9.6000004" opacity="0.3" width="230.4000092" x="148.8000031" y="144"/></g><g id="XMLID_40_"><rect height="9.6000004" opacity="0.3" width="230.4000092" x="148.8000031" y="201.6000061"/></g><g id="XMLID_38_"><rect height="9.6000004" opacity="0.3" width="230.4000092" x="148.8000031" y="259.2000122"/></g><g id="XMLID_37_"><rect height="9.6000004" opacity="0.3" width="230.4000092" x="148.8000031" y="316.7999878"/></g><g id="XMLID_36_"><rect height="9.6000004" opacity="0.3" width="230.4000092" x="148.8000031" y="374.3999939"/></g></g><g id="XMLID_94_"><g id="XMLID_99_"><rect fill="#FFFFFF" height="9.6000004" width="230.4000092" x="140.8000031" y="136"/></g><g id="XMLID_98_"><rect fill="#FFFFFF" height="9.6000004" width="230.4000092" x="140.8000031" y="193.6000061"/></g><g id="XMLID_97_"><rect fill="#FFFFFF" height="9.6000004" width="230.4000092" x="140.8000031" y="251.1999969"/></g><g id="XMLID_96_"><rect fill="#FFFFFF" height="9.6000004" width="230.4000092" x="140.8000031" y="308.7999878"/></g><g id="XMLID_95_"><rect fill="#FFFFFF" height="9.6000004" width="230.4000092" x="140.8000031" y="366.3999939"/></g></g></g></svg>