<?xml version="1.0" ?><svg enable-background="new 0 0 512 512" id="Layer_1" version="1.1" viewBox="0 0 512 512" xml:space="preserve" xmlns="http://www.w3.org/2000/svg" xmlns:xlink="http://www.w3.org/1999/xlink"><g><g><linearGradient gradientUnits="userSpaceOnUse" id="SVGID_1_" x1="-0.0000027" x2="512" y1="256" y2="256"><stop offset="0" style="stop-color:#00AEEE"/><stop offset="1" style="stop-color:#0095DA"/></linearGradient><circle cx="256" cy="256" fill="url(#SVGID_1_)" r="256"/><linearGradient gradientUnits="userSpaceOnUse" id="SVGID_2_" x1="42.6666641" x2="469.3333435" y1="256.0005188" y2="256.0005188"><stop offset="0" style="stop-color:#0095DA"/><stop offset="1" style="stop-color:#00AEEE"/></linearGradient><path d="M256,469.3338623c-117.6315002,0-213.3333435-95.7023926-213.3333435-213.3333435    c0-117.6314545,95.7018356-213.333313,213.3333435-213.333313c117.6357117,0,213.3333435,95.7018661,213.3333435,213.333313    C469.3333435,373.6314697,373.6357117,469.3338623,256,469.3338623z" fill="url(#SVGID_2_)"/></g><g><rect height="69.6357346" opacity="0.3" width="240" x="144" y="144"/><path d="M169.0175781,384h189.9647827V223.6373291H169.0175781V384z M216.2965088,249.2970734h95.4058533v9.9999847    h-95.4058533V249.2970734z" opacity="0.3"/></g><g><rect fill="#FFFFFF" height="69.6357346" width="240" x="136" y="136"/><path d="M161.0175781,376h189.9647827V215.6373291H161.0175781V376z M208.2965088,241.2970734h95.4058533v10    h-95.4058533V241.2970734z" fill="#FFFFFF"/></g></g></svg>