<?xml version="1.0" ?><svg enable-background="new 0 0 512 512" id="Layer_1" version="1.1" viewBox="0 0 512 512" xml:space="preserve" xmlns="http://www.w3.org/2000/svg" xmlns:xlink="http://www.w3.org/1999/xlink"><g><g><linearGradient gradientUnits="userSpaceOnUse" id="SVGID_1_" x1="0.0000038" x2="512" y1="256" y2="256"><stop offset="0" style="stop-color:#95A5A6"/><stop offset="1" style="stop-color:#7F8C8D"/></linearGradient><circle cx="256" cy="256" fill="url(#SVGID_1_)" r="256"/><linearGradient gradientUnits="userSpaceOnUse" id="SVGID_2_" x1="42.6666679" x2="469.3333435" y1="256.0005188" y2="256.0005188"><stop offset="0" style="stop-color:#7F8C8D"/><stop offset="1" style="stop-color:#95A5A6"/></linearGradient><path d="M256,469.3338623c-117.6314697,0-213.3333282-95.7018738-213.3333282-213.3333435    S138.3685303,42.6671982,256,42.6671982c117.6357422,0,213.3333435,95.7018661,213.3333435,213.333313    S373.6357422,469.3338623,256,469.3338623z" fill="url(#SVGID_2_)"/></g><path d="M144,144v240h240V144H144z M338.7162781,260.6666565v10h-81.3818665v-81.3823853h10v64.3114624   l78.130127-78.1322632l7.0704041,7.0703888l-78.1306763,78.1327972H338.7162781z" opacity="0.3"/><path d="M136,136v240h240V136H136z M330.7162781,252.6666718v9.9999847h-81.3818817v-81.3823853h10.0000153   v64.3114624l78.130127-78.1322632l7.0704041,7.0703888l-78.1306763,78.1328125H330.7162781z" fill="#FFFFFF"/></g></svg>