<?xml version="1.0" ?><svg enable-background="new 0 0 512 512" id="Layer_1" version="1.1" viewBox="0 0 512 512" xml:space="preserve" xmlns="http://www.w3.org/2000/svg" xmlns:xlink="http://www.w3.org/1999/xlink"><g><g><linearGradient gradientUnits="userSpaceOnUse" id="SVGID_1_" x1="0.0000038" x2="512" y1="256" y2="256"><stop offset="0" style="stop-color:#A364AB"/><stop offset="1" style="stop-color:#8C3D96"/></linearGradient><circle cx="256" cy="256" fill="url(#SVGID_1_)" r="256"/><linearGradient gradientUnits="userSpaceOnUse" id="SVGID_2_" x1="42.6666679" x2="469.3333435" y1="256.0005188" y2="256.0005188"><stop offset="0" style="stop-color:#8C3D96"/><stop offset="1" style="stop-color:#A364AB"/></linearGradient><path d="M256,469.3338623c-117.6314697,0-213.3333282-95.7018738-213.3333282-213.3333435    S138.3685303,42.6671982,256,42.6671982c117.636261,0,213.3333435,95.7018661,213.3333435,213.333313    S373.636261,469.3338623,256,469.3338623z" fill="url(#SVGID_2_)"/></g><polygon opacity="0.3" points="384,208 384,144 320,144 320,200.93013 200.93013,320 144,320 144,384 208,384 208,327.0709229    327.0709229,208  "/><polygon fill="#FFFFFF" points="376,200 376,136 312,136 312,192.93013 192.93013,312 136,312 136,376 200,376 200,319.0709229    319.0709229,200  "/></g></svg>