<?xml version="1.0" ?><svg enable-background="new 0 0 512 512" id="Layer_1" version="1.1" viewBox="0 0 512 512" xml:space="preserve" xmlns="http://www.w3.org/2000/svg" xmlns:xlink="http://www.w3.org/1999/xlink"><g><g><linearGradient gradientUnits="userSpaceOnUse" id="SVGID_1_" x1="-0.0000027" x2="512" y1="256" y2="256"><stop offset="0" style="stop-color:#00AEEE"/><stop offset="1" style="stop-color:#0095DA"/></linearGradient><circle cx="256" cy="256" fill="url(#SVGID_1_)" r="256"/><linearGradient gradientUnits="userSpaceOnUse" id="SVGID_2_" x1="42.6666641" x2="469.3333435" y1="256.0005188" y2="256.0005188"><stop offset="0" style="stop-color:#0095DA"/><stop offset="1" style="stop-color:#00AEEE"/></linearGradient><path d="M256,469.3338623c-117.631012,0-213.3333435-95.7023926-213.3333435-213.3333435    c0-117.6314545,95.7023239-213.333313,213.3333435-213.333313c117.6362,0,213.3333435,95.7018661,213.3333435,213.333313    C469.3333435,373.6314697,373.6362,469.3338623,256,469.3338623z" fill="url(#SVGID_2_)"/></g><g><polygon opacity="0.3" points="301.5513916,181.5589294 294.8751221,188.235733 370.6420593,263.997345 294.8751221,339.7642822     301.5513916,346.4410706 383.9946594,263.997345   "/><polygon opacity="0.3" points="226.4441986,181.5589294 144.0057983,263.997345 226.4441986,346.4410706 233.1209869,339.7642822     157.3588562,263.997345 233.1209869,188.235733   "/></g><g><polygon fill="#FFFFFF" points="293.5513916,173.5589294 286.8751221,180.235733 362.6420593,255.9973297     286.8751221,331.7642822 293.5513916,338.4410706 375.9946594,255.9973297   "/><polygon fill="#FFFFFF" points="218.4441986,173.5589294 136.0057983,255.9973297 218.4441986,338.4410706     225.1209869,331.7642822 149.3588562,255.9973297 225.1209869,180.235733   "/></g></g></svg>