<?xml version="1.0" ?><svg enable-background="new 0 0 512 512" id="Layer_1" version="1.1" viewBox="0 0 512 512" xml:space="preserve" xmlns="http://www.w3.org/2000/svg" xmlns:xlink="http://www.w3.org/1999/xlink"><g><g><linearGradient gradientUnits="userSpaceOnUse" id="SVGID_1_" x1="0.0000038" x2="512" y1="256" y2="256"><stop offset="0" style="stop-color:#E24263"/><stop offset="1" style="stop-color:#DD1E47"/></linearGradient><circle cx="256" cy="256" fill="url(#SVGID_1_)" r="256"/><linearGradient gradientUnits="userSpaceOnUse" id="SVGID_2_" x1="42.6666679" x2="469.3333435" y1="256.0005188" y2="256.0005188"><stop offset="0" style="stop-color:#DD1E47"/><stop offset="1" style="stop-color:#E24263"/></linearGradient><path d="M256,469.3338623c-117.6309357,0-213.3333282-95.7018738-213.3333282-213.3333435    S138.3690643,42.6671982,256,42.6671982c117.636261,0,213.3333435,95.7018661,213.3333435,213.333313    S373.636261,469.3338623,256,469.3338623z" fill="url(#SVGID_2_)"/></g><g><polygon opacity="0.3" points="203.0458679,271.3669434 196.3685303,264.6906738 144,317.0565491 196.3685303,369.4255981     203.0458679,362.7488098 162.0757294,321.778656 339.5397339,321.778656 339.5397339,312.3349304 162.0762634,312.3349304   "/><polygon opacity="0.3" points="324.9546509,256.6325378 331.6315918,263.3088074 384,210.9434662 331.6315918,158.5744019     324.9546509,165.2512054 365.9249268,206.2213287 188.4608002,206.2213287 188.4608002,215.6650696 365.9242554,215.6650696   "/></g><g><polygon fill="#FFFFFF" points="195.0458679,263.3669434 188.3685303,256.6906738 136,309.0565491 188.3685303,361.4255981     195.0458679,354.7488098 154.0757294,313.778656 331.5397339,313.778656 331.5397339,304.3349304 154.0762634,304.3349304   "/><polygon fill="#FFFFFF" points="316.9546509,248.6325378 323.6315918,255.3088074 376,202.9434662 323.6315918,150.5744019     316.9546509,157.2512054 357.9249268,198.2213287 180.4608002,198.2213287 180.4608002,207.6650696 357.9242554,207.6650696   "/></g></g></svg>