<?xml version="1.0" ?><svg enable-background="new 0 0 512 512" id="Layer_1" version="1.1" viewBox="0 0 512 512" xml:space="preserve" xmlns="http://www.w3.org/2000/svg" xmlns:xlink="http://www.w3.org/1999/xlink"><g><g><linearGradient gradientUnits="userSpaceOnUse" id="SVGID_1_" x1="-0.0000027" x2="512" y1="256" y2="256"><stop offset="0" style="stop-color:#33B49D"/><stop offset="1" style="stop-color:#00A185"/></linearGradient><circle cx="256" cy="256" fill="url(#SVGID_1_)" r="256"/><linearGradient gradientUnits="userSpaceOnUse" id="SVGID_2_" x1="42.6666641" x2="469.3333435" y1="256.0005188" y2="256.0005188"><stop offset="0" style="stop-color:#00A185"/><stop offset="1" style="stop-color:#33B49D"/></linearGradient><path d="M256,469.3338623c-117.6314697,0-213.3333435-95.7018738-213.3333435-213.3333435    S138.3685303,42.6671982,256,42.6671982c117.636261,0,213.3333435,95.7018661,213.3333435,213.333313    S373.636261,469.3338623,256,469.3338623z" fill="url(#SVGID_2_)"/></g><g><path d="M195.1109924,259.4944153H144v98.9498596C144,372.5578613,155.4416046,384,169.5557251,384    c14.1136017,0,25.5552673-11.4421387,25.5552673-25.5557251V259.4944153z" opacity="0.3"/><path d="M205.1109924,144v105.4917297h-0.0010223v108.9504089    c0,10.0303955-4.1920013,19.0869141-10.8959961,25.5578613h164.2297516h0.0005493    C372.5578613,384,384,372.3178711,384,357.9077454V216.694931v-17.6111908V144H205.1109924z M229.4445343,175.2608032h58.8884735    V275.659729h-58.8884735V175.2608032z M363.1376038,354.965332H216.7774963v-10h146.3601074V354.965332z M363.1376038,320.9322815    H216.7774963v-10h146.3601074V320.9322815z M363.1376038,256.6938782h-55v-10.0000153h55V256.6938782z M363.1376038,225.9226685    h-55v-10h55V225.9226685z M363.1376038,195.1509399h-55v-10h55V195.1509399z" opacity="0.3"/></g><g><path d="M187.1109314,251.4944H136v98.9498749C136,364.5578613,147.4416046,376,161.5557251,376    c14.1136017,0,25.5552063-11.4421387,25.5552063-25.5557251V251.4944z" fill="#FFFFFF"/><path d="M197.1109924,136v105.4917297h-0.0010223v108.9504089    c0,10.0303955-4.1920013,19.0869141-10.8961029,25.5578613h164.2298584h0.0005493    C364.5578613,376,376,364.3178711,376,349.9077454V208.694931v-17.6111908V136H197.1109924z M221.4445343,167.2608032h58.8884735    V267.659729h-58.8884735V167.2608032z M355.1376038,346.965332H208.7774963v-10h146.3601074V346.965332z M355.1376038,312.9322815    H208.7774963v-10h146.3601074V312.9322815z M355.1376038,248.6938629h-55v-10h55V248.6938629z M355.1376038,217.9226685h-55v-10    h55V217.9226685z M355.1376038,187.1509399h-55v-10h55V187.1509399z" fill="#FFFFFF"/></g></g></svg>