<?xml version="1.0" ?><svg enable-background="new 0 0 512 512" id="Layer_1" version="1.1" viewBox="0 0 512 512" xml:space="preserve" xmlns="http://www.w3.org/2000/svg" xmlns:xlink="http://www.w3.org/1999/xlink"><g><g><linearGradient gradientUnits="userSpaceOnUse" id="SVGID_1_" x1="-0.0000027" x2="512" y1="256" y2="256"><stop offset="0" style="stop-color:#95A5A6"/><stop offset="1" style="stop-color:#7F8C8D"/></linearGradient><circle cx="256" cy="256" fill="url(#SVGID_1_)" r="256"/><linearGradient gradientUnits="userSpaceOnUse" id="SVGID_2_" x1="42.6666641" x2="469.3333435" y1="256.0005188" y2="256.0005188"><stop offset="0" style="stop-color:#7F8C8D"/><stop offset="1" style="stop-color:#95A5A6"/></linearGradient><path d="M256,469.3338623c-117.631012,0-213.3333435-95.7023926-213.3333435-213.3333435    c0-117.6314545,95.7023239-213.333313,213.3333435-213.333313c117.6362,0,213.3333435,95.7018661,213.3333435,213.333313    C469.3333435,373.6314697,373.6362,469.3338623,256,469.3338623z" fill="url(#SVGID_2_)"/></g><g><path d="M352.3177795,144H175.6820526c-8.284256,0-14.9993896,6.7162628-14.9993896,15v210    c0,8.28479,6.7151337,14.9994812,14.9993896,14.9994812h176.6357269c8.2848816,0,15-6.7146912,15-14.9994812V159    C367.3177795,150.7162628,360.6026611,144,352.3177795,144z M235.6665955,168.9877319h56.6672058v20.8325348h-56.6672058    V168.9877319z M263.9993896,362.4469299c-37.7925262,0-68.5397339-30.7471924-68.5397339-68.5402527    c0-37.7925415,30.7472076-68.5397491,68.5397339-68.5397491c37.7957458,0,68.5429382,30.7472076,68.5429382,68.5397491    C332.5423279,331.6997375,301.7951355,362.4469299,263.9993896,362.4469299z" opacity="0.3"/><path d="M263.9993896,235.3669281c-32.2799988,0-58.5397339,26.2597504-58.5397339,58.5397491    c0,32.2805176,26.2597351,58.5402527,58.5397339,58.5402527s58.5429382-26.2597351,58.5429382-58.5402527    C322.5423279,261.6266785,296.2793884,235.3669281,263.9993896,235.3669281z M264.0020447,313.6821289    c-10.9061279,0-19.7802582-8.8720093-19.7802582-19.7754517c0-10.9029541,8.8741302-19.7754822,19.7802582-19.7754822    c10.9029541,0,19.7749329,8.8725281,19.7749329,19.7754822    C283.7769775,304.8101196,274.9049988,313.6821289,264.0020447,313.6821289z" opacity="0.3"/><path d="M264.0020447,284.1311951c-5.3935852,0-9.7802582,4.3850708-9.7802582,9.7754822    c0,5.3909302,4.386673,9.7754517,9.7802582,9.7754517c5.3904114,0,9.7749329-4.3845215,9.7749329-9.7754517    C273.7769775,288.5162659,269.3924561,284.1311951,264.0020447,284.1311951z" opacity="0.3"/></g><g><path d="M344.3177795,136H167.6820526c-8.284256,0-14.9993896,6.7162628-14.9993896,15v210    c0,8.28479,6.7151337,14.9994812,14.9993896,14.9994812h176.6357269c8.2848816,0,15-6.7146912,15-14.9994812V151    C359.3177795,142.7162628,352.6026611,136,344.3177795,136z M227.6665955,160.9877319h56.6672058v20.8325348h-56.6672058    V160.9877319z M255.9993896,354.4469299c-37.7925262,0-68.5397339-30.7471924-68.5397339-68.5402527    c0-37.7925415,30.7472076-68.5397491,68.5397339-68.5397491c37.7957458,0,68.5429382,30.7472076,68.5429382,68.5397491    C324.5423279,323.6997375,293.7951355,354.4469299,255.9993896,354.4469299z" fill="#FFFFFF"/><path d="M255.9993896,227.3669281c-32.2799988,0-58.5397339,26.2597351-58.5397339,58.5397491    c0,32.2805176,26.2597351,58.5402527,58.5397339,58.5402527s58.5429382-26.2597351,58.5429382-58.5402527    C314.5423279,253.6266632,288.2793884,227.3669281,255.9993896,227.3669281z M256.0020447,305.6821289    c-10.9061279,0-19.7802582-8.8720093-19.7802582-19.7754517c0-10.9029541,8.8741302-19.7754822,19.7802582-19.7754822    c10.9029541,0,19.7749329,8.8725281,19.7749329,19.7754822    C275.7769775,296.8101196,266.9049988,305.6821289,256.0020447,305.6821289z" fill="#FFFFFF"/><path d="M256.0020447,276.1311951c-5.3935852,0-9.7802582,4.3850708-9.7802582,9.7754822    c0,5.3909302,4.386673,9.7754517,9.7802582,9.7754517c5.3904114,0,9.7749329-4.3845215,9.7749329-9.7754517    C265.7769775,280.5162659,261.3924561,276.1311951,256.0020447,276.1311951z" fill="#FFFFFF"/></g></g></svg>