<?xml version="1.0" ?><!DOCTYPE svg  PUBLIC '-//W3C//DTD SVG 1.1//EN'  'http://www.w3.org/Graphics/SVG/1.1/DTD/svg11.dtd'><svg enable-background="new 0 0 500 500" height="500px" id="Capa_1" version="1.1" viewBox="0 0 500 500" width="500px" xml:space="preserve" xmlns="http://www.w3.org/2000/svg" xmlns:xlink="http://www.w3.org/1999/xlink"><path d="M412.226,87.133L88.29,412.367c41.458,40.974,98.435,66.279,161.33,66.279  c126.765,0,229.527-102.764,229.527-229.527C479.146,185.895,453.58,128.644,412.226,87.133z" fill="#E26600"/><path d="M249.619,19.592c-126.765,0-229.527,102.762-229.527,229.527c0,63.87,26.096,121.639,68.197,163.248  L412.226,87.133C370.665,45.414,313.159,19.592,249.619,19.592z" fill="#DD4400"/><circle cx="249.062" cy="248.562" fill="none" r="243.438" stroke="#E26600" stroke-miterlimit="10" stroke-width="5"/><path clip-rule="evenodd" d="M329.241,384c-0.166-1.057-0.459-2.111-0.477-3.171  c-0.806-47.284-15.323-89.945-44.022-127.475c-31.829-41.626-73.561-68.208-124.745-79.722c-13.466-3.03-27.159-4.443-40.961-4.757  c-1.182-0.027-2.365-0.004-3.749-0.004c0-17.007,0-33.792,0-50.675c4.422,0,8.761-0.193,13.078,0.031  c27.793,1.447,54.909,6.562,80.7,17.077c86.382,35.218,140.964,98.314,163.932,188.678c3.663,14.415,5.535,29.175,6.297,44.053  c0.059,1.164,0.333,2.315,0.507,3.473c0,4.165,0,8.328,0,12.492C362.948,384,346.095,384,329.241,384z" fill="#FFFFFF" fill-rule="evenodd"/><path clip-rule="evenodd" d="M238.465,384c-0.448-35.866-13.292-66.473-39.425-91.123  c-22.377-21.107-49.221-31.968-79.954-33.218c-1.257-0.051-2.513-0.132-3.906-0.206c0-16.868,0-33.524,0-50.273  c4.252,0,8.479-0.35,12.633,0.053c61.262,5.93,107.622,35.524,138.774,88.487c15.012,25.523,22.027,53.507,22.647,83.089  c0.022,1.061-0.232,2.128-0.358,3.191C272.073,384,255.27,384,238.465,384z" fill="#FFFFFF" fill-rule="evenodd"/><path clip-rule="evenodd" d="M150.087,313.166c19.511-0.016,35.208,15.674,35.192,35.178  c-0.016,19.476-15.733,35.128-35.253,35.107c-19.331-0.018-34.982-15.668-35.026-35.022  C114.956,328.888,130.581,313.184,150.087,313.166z" fill="#FFFFFF" fill-rule="evenodd"/></svg>