<?xml version="1.0" ?><!DOCTYPE svg  PUBLIC '-//W3C//DTD SVG 1.1//EN'  'http://www.w3.org/Graphics/SVG/1.1/DTD/svg11.dtd'><svg enable-background="new 0 0 500 500" height="500px" id="Capa_1" version="1.1" viewBox="0 0 500 500" width="500px" xml:space="preserve" xmlns="http://www.w3.org/2000/svg" xmlns:xlink="http://www.w3.org/1999/xlink"><path d="M412.226,87.133L88.29,412.367c41.458,40.974,98.435,66.279,161.33,66.279  c126.765,0,229.527-102.764,229.527-229.527C479.146,185.895,453.58,128.644,412.226,87.133z" fill="#E5E5E5"/><path d="M249.619,19.592c-126.765,0-229.527,102.762-229.527,229.527c0,63.87,26.096,121.639,68.197,163.248  L412.226,87.133C370.665,45.414,313.159,19.592,249.619,19.592z" fill="#CCCCCC"/><circle cx="249.062" cy="248.562" fill="none" r="243.438" stroke="#CCCCCC" stroke-miterlimit="10" stroke-width="5"/><path clip-rule="evenodd" d="M234.66,381.775c-4.401-0.796-8.905-1.234-13.181-2.464  c-8.722-2.51-17.335-5.406-25.948-8.277c-0.753-0.251-1.682-1.484-1.685-2.263c-0.084-20.233-0.057-40.468-0.037-60.702  c0.001-0.277,0.162-0.555,0.291-0.967c57.665,0,115.324,0,173.497,0c-1.161,2.264-2.094,4.306-3.219,6.235  c-22.706,38.929-56.269,61.726-101.003,67.904c-0.566,0.078-1.104,0.352-1.657,0.533  C252.698,381.775,243.679,381.775,234.66,381.775z" fill="#5EDD66" fill-rule="evenodd"/><path clip-rule="evenodd" d="M115,246.483c0.771-6.853,1.11-13.786,2.381-20.543  c7.918-42.104,30.993-73.304,68.363-94.027c0.795-0.441,2.471-0.469,3.059,0.061c16.225,14.618,32.362,29.333,48.509,44.038  c0.135,0.124,0.195,0.33,0.424,0.733c-39.06,35.503-78.159,71.042-117.259,106.583c-0.364-0.046-0.729-0.089-1.094-0.134  c-1.267-8.55-2.555-17.096-3.785-25.651c-0.298-2.069-0.404-4.166-0.599-6.249C115,249.689,115,248.086,115,246.483z" fill="#9247F4" fill-rule="evenodd"/><path clip-rule="evenodd" d="M381.377,255.503c-0.806,5.923-1.331,11.9-2.497,17.751  c-1.188,5.967-2.938,11.826-4.631,17.68c-0.233,0.804-1.561,1.839-2.387,1.843c-17.93,0.094-35.859,0.054-53.789,0.033  c-0.188,0-0.376-0.105-0.774-0.225c0-52.065,0-104.192,0-156.871c2.936,1.957,5.716,3.645,8.322,5.571  c30.462,22.538,48.66,52.517,54.426,89.994c0.561,3.646,0.893,7.328,1.33,10.994C381.377,246.684,381.377,251.093,381.377,255.503z" fill="#FF9A3E" fill-rule="evenodd"/><path clip-rule="evenodd" d="M255.104,116c5.838,0.798,11.816,1.053,17.483,2.516  c9.65,2.492,19.12,5.7,28.617,8.755c0.826,0.266,1.854,1.626,1.857,2.481c0.089,28.551,0.065,57.104,0.047,85.656  c0,0.166-0.146,0.331-0.429,0.93c-33.565-30.469-67.018-60.836-100.79-91.495c8.714-3.403,17.274-5.6,26.036-7.008  c4.628-0.744,9.298-1.231,13.949-1.835C246.285,116,250.694,116,255.104,116z" fill="#FF3939" fill-rule="evenodd"/><path clip-rule="evenodd" d="M179.661,362.999c-5.556-4.072-10.77-7.556-15.607-11.5  c-16.738-13.649-29.388-30.437-38.028-50.256c-0.932-2.137-0.847-3.406,1.027-5.089c16.904-15.185,33.689-30.501,50.518-45.772  c0.554-0.503,1.182-0.925,2.09-1.63C179.661,286.818,179.661,324.463,179.661,362.999z" fill="#4183EF" fill-rule="evenodd"/></svg>